<svg version="1.1" id="Layer_1" xmlns="http://www.w3.org/2000/svg" xmlns:xlink="http://www.w3.org/1999/xlink" x="0px" y="0px"
	 width="100%" viewBox="0 0 500 500" enable-background="new 0 0 500 500" xml:space="preserve">
<path fill="#FEFEFE" opacity="1.000000" stroke="none" 
	d="
M275.000000,501.000000 
	C183.333359,501.000000 92.166710,501.000000 1.000049,501.000000 
	C1.000033,334.333405 1.000033,167.666794 1.000016,1.000138 
	C167.666565,1.000092 334.333130,1.000092 500.999756,1.000046 
	C500.999847,167.666519 500.999847,334.333038 500.999939,500.999786 
	C425.833344,501.000000 350.666656,501.000000 275.000000,501.000000 
M64.501312,215.002228 
	C70.498962,215.002380 76.496605,215.001801 82.494255,215.002899 
	C91.872864,215.004593 92.420654,214.461685 92.423775,205.094925 
	C92.427361,194.311142 92.424606,183.527359 92.424606,172.850220 
	C100.140121,171.463577 100.126823,171.469559 102.972733,177.794418 
	C107.607506,188.094955 112.326340,198.358353 116.871559,208.698135 
	C118.408218,212.193832 120.650177,214.826172 124.547432,214.875397 
	C138.206650,215.047852 151.870193,215.077820 165.529419,214.923752 
	C169.522186,214.878723 171.013931,212.074127 169.406738,208.354538 
	C168.486710,206.225342 167.256546,204.229446 166.154526,202.179703 
	C159.326996,189.480423 152.496201,176.782898 145.626083,164.009674 
	C147.540161,162.554153 149.104263,161.344757 150.688843,160.162811 
	C174.531113,142.378555 170.927155,100.869164 145.459183,86.860268 
	C134.822174,81.009293 123.467323,78.253113 111.524376,78.085854 
	C91.702187,77.808243 71.873909,77.960999 52.048176,77.944565 
	C44.637978,77.938423 43.449791,79.184853 43.452633,86.704117 
	C43.467552,126.189308 43.472095,165.674500 43.480251,205.159698 
	C43.480492,206.325928 43.454433,207.492874 43.485840,208.658264 
	C43.599659,212.881805 45.603195,215.108749 50.007874,215.021942 
	C54.504448,214.933319 59.004124,215.002258 64.501312,215.002228 
M349.041962,334.474915 
	C350.166473,335.382172 351.290985,336.289429 352.649231,337.385284 
	C345.527710,341.926849 340.744324,347.525574 337.929504,354.746948 
	C330.696228,373.303925 340.095001,396.009613 359.814545,404.554626 
	C368.483246,408.311005 378.230469,410.388367 387.680023,411.359680 
	C405.751740,413.217346 423.848053,412.013428 440.033722,402.677368 
	C466.575043,387.368073 467.820099,351.407776 443.976837,337.561005 
	C445.894531,335.291412 448.094482,333.201294 449.648438,330.708496 
	C451.300171,328.058838 452.731232,325.138794 453.582275,322.144562 
	C458.789490,303.824127 450.053772,284.261261 432.261230,277.175507 
	C409.408295,268.074493 385.818695,267.938538 363.126709,277.392822 
	C340.048065,287.008087 333.060822,316.219818 349.041962,334.474915 
M409.151886,178.005600 
	C400.174316,179.604614 391.717682,179.111618 383.968750,173.316086 
	C381.787720,171.684860 378.386230,171.140060 375.520172,171.068100 
	C365.197388,170.808884 354.856384,171.214005 344.537292,170.889526 
	C335.171112,170.595016 335.058960,173.606628 336.454651,181.185364 
	C338.815979,194.007614 347.310486,202.240753 358.273285,208.151321 
	C374.104492,216.686661 391.299347,217.772339 408.765320,216.522675 
	C423.779785,215.448410 437.871613,211.502304 450.019623,202.067169 
	C462.545929,192.338272 466.871460,179.419434 464.845123,164.073502 
	C462.907654,149.400436 454.559601,139.587051 440.741699,135.134171 
	C430.993988,131.992935 420.780151,130.294357 410.768433,127.977768 
	C404.801910,126.597191 398.741913,125.531265 392.909485,123.724899 
	C391.484772,123.283661 389.964752,120.464050 390.016876,118.785423 
	C390.059052,117.428352 392.177185,115.468842 393.759857,114.948112 
	C399.098572,113.191597 404.117859,114.135941 408.926361,117.339844 
	C411.446503,119.019020 414.600189,120.603058 417.513092,120.688683 
	C429.997375,121.055656 442.498474,120.843254 454.993469,120.856094 
	C459.091431,120.860306 460.525787,118.750893 460.273682,114.810722 
	C459.811981,107.594879 456.383514,101.829727 451.676025,96.714828 
	C440.315399,84.371132 425.986359,78.058868 409.467651,76.537048 
	C390.278656,74.769188 371.935638,76.897476 355.673309,88.532738 
	C332.776642,104.914719 332.863647,142.481552 360.496826,155.520035 
	C367.766815,158.950317 375.765808,161.036316 383.618591,162.976501 
	C392.149933,165.084335 400.961487,166.049149 409.512939,168.090256 
	C411.600647,168.588562 413.149536,171.344360 414.946228,173.062225 
	C413.283142,174.662216 411.620056,176.262207 409.151886,178.005600 
M112.538681,371.091705 
	C105.606552,375.936157 98.975044,375.444489 93.544022,369.028625 
	C90.421227,365.339569 86.865501,363.995514 82.232971,364.052307 
	C70.903770,364.191193 59.571762,364.087982 48.240959,364.115234 
	C42.114647,364.129974 40.735271,365.883270 41.400398,372.104492 
	C42.714195,384.392883 49.126137,393.540741 58.946651,400.467346 
	C80.664291,415.785217 122.610825,416.528442 145.121628,402.127533 
	C162.608734,390.940521 170.416779,371.731964 165.272720,352.554108 
	C159.820938,332.228943 138.763794,316.902466 117.459808,318.529297 
	C109.245766,319.156494 101.160248,321.466797 93.000282,323.013275 
	C93.385025,319.673676 93.855652,315.588531 94.378181,311.052917 
	C96.223114,311.052917 97.849129,311.052948 99.475136,311.052917 
	C116.138268,311.052856 132.801422,311.069183 149.464508,311.043732 
	C155.226639,311.034912 156.834793,309.426270 156.875031,303.621979 
	C156.930481,295.624298 156.908783,287.626038 156.910278,279.628021 
	C156.911102,275.184570 154.898132,272.899536 150.231781,272.909119 
	C121.737968,272.967743 93.243935,272.919281 64.750092,272.968567 
	C59.024445,272.978455 56.837158,274.859344 56.198490,280.512085 
	C53.674896,302.847931 51.233654,325.193268 48.839737,347.543427 
	C48.184727,353.658752 49.388023,354.834747 55.711346,354.843658 
	C65.709007,354.857758 75.716789,355.100311 85.699242,354.708984 
	C89.490616,354.560394 93.445786,353.420898 96.934151,351.857819 
	C102.988556,349.145020 109.373871,349.554901 113.100548,353.688538 
	C117.186958,358.221191 117.201508,364.994751 112.538681,371.091705 
M180.851868,205.288559 
	C177.866684,213.518356 178.888367,214.997360 187.571594,215.000137 
	C197.570663,215.003326 207.574341,214.820374 217.567017,215.073288 
	C223.192261,215.215652 226.738297,213.318649 228.275101,207.658371 
	C229.257645,204.039505 230.902847,200.600555 232.240845,197.107346 
	C242.476913,197.107346 252.305328,197.107346 262.133728,197.107346 
	C273.968994,197.107346 274.104034,197.059372 278.054871,208.178619 
	C279.829895,213.174225 282.911194,215.180573 288.165894,215.068420 
	C298.826691,214.840897 309.495850,215.020264 320.161438,214.993561 
	C326.736694,214.977112 328.151825,212.987762 325.931641,206.629105 
	C311.809021,166.181244 297.597504,125.764282 283.557678,85.287750 
	C281.762085,80.111099 278.686462,77.832207 273.243073,77.893456 
	C259.912659,78.043465 246.578094,78.051041 233.248001,77.887627 
	C227.613922,77.818550 224.501602,80.105515 222.622849,85.539001 
	C208.892929,125.246765 194.934998,164.875687 180.851868,205.288559 
M307.650513,344.042175 
	C308.617432,341.927917 309.634583,339.834991 310.543579,337.696106 
	C320.113800,315.177521 313.172424,292.315125 291.590424,280.735352 
	C266.252014,267.140076 239.631805,266.894775 213.841248,279.340729 
	C192.849167,289.471069 182.734970,313.021606 189.043488,333.831177 
	C194.678802,352.420105 208.944016,361.735077 226.560699,366.953674 
	C229.824356,367.920471 233.239975,368.374390 237.001038,369.150818 
	C228.746933,380.222473 220.725037,390.834076 212.927612,401.608185 
	C211.808624,403.154297 210.750259,406.142334 211.488190,407.288605 
	C212.461548,408.800659 215.212814,409.808533 217.243408,409.885803 
	C224.897995,410.177124 232.571503,410.092834 240.235687,409.986938 
	C262.908264,409.673645 256.711945,413.089081 270.650208,394.597015 
	C283.069702,378.119965 295.058746,361.318481 307.650513,344.042175 
z"/>
<path fill="#020202" opacity="1.000000" stroke="none" 
	d="
M64.001877,215.002228 
	C59.004124,215.002258 54.504448,214.933319 50.007874,215.021942 
	C45.603195,215.108749 43.599659,212.881805 43.485840,208.658264 
	C43.454433,207.492874 43.480492,206.325928 43.480251,205.159698 
	C43.472095,165.674500 43.467552,126.189308 43.452633,86.704117 
	C43.449791,79.184853 44.637978,77.938423 52.048176,77.944565 
	C71.873909,77.960999 91.702187,77.808243 111.524376,78.085854 
	C123.467323,78.253113 134.822174,81.009293 145.459183,86.860268 
	C170.927155,100.869164 174.531113,142.378555 150.688843,160.162811 
	C149.104263,161.344757 147.540161,162.554153 145.626083,164.009674 
	C152.496201,176.782898 159.326996,189.480423 166.154526,202.179703 
	C167.256546,204.229446 168.486710,206.225342 169.406738,208.354538 
	C171.013931,212.074127 169.522186,214.878723 165.529419,214.923752 
	C151.870193,215.077820 138.206650,215.047852 124.547432,214.875397 
	C120.650177,214.826172 118.408218,212.193832 116.871559,208.698135 
	C112.326340,198.358353 107.607506,188.094955 102.972733,177.794418 
	C100.126823,171.469559 100.140121,171.463577 92.424606,172.850220 
	C92.424606,183.527359 92.427361,194.311142 92.423775,205.094925 
	C92.420654,214.461685 91.872864,215.004593 82.494255,215.002899 
	C76.496605,215.001801 70.498962,215.002380 64.001877,215.002228 
M101.458313,135.079147 
	C103.117821,135.073242 104.778816,135.110718 106.436562,135.053589 
	C112.200165,134.854980 115.459221,131.561890 115.804268,125.633331 
	C116.146736,119.749168 112.851715,114.878036 107.629959,114.452583 
	C102.741592,114.054291 97.795265,114.367348 92.711975,114.367348 
	C92.711975,121.479980 92.711975,128.162506 92.711975,135.079117 
	C95.543503,135.079117 98.023628,135.079117 101.458313,135.079147 
z"/>
<path fill="#020202" opacity="1.000000" stroke="none" 
	d="
M348.798462,334.208435 
	C333.060822,316.219818 340.048065,287.008087 363.126709,277.392822 
	C385.818695,267.938538 409.408295,268.074493 432.261230,277.175507 
	C450.053772,284.261261 458.789490,303.824127 453.582275,322.144562 
	C452.731232,325.138794 451.300171,328.058838 449.648438,330.708496 
	C448.094482,333.201294 445.894531,335.291412 443.976837,337.561005 
	C467.820099,351.407776 466.575043,387.368073 440.033722,402.677368 
	C423.848053,412.013428 405.751740,413.217346 387.680023,411.359680 
	C378.230469,410.388367 368.483246,408.311005 359.814545,404.554626 
	C340.095001,396.009613 330.696228,373.303925 337.929504,354.746948 
	C340.744324,347.525574 345.527710,341.926849 352.649231,337.385284 
	C351.290985,336.289429 350.166473,335.382172 348.798462,334.208435 
M402.576843,378.492889 
	C407.532593,377.203796 410.870697,374.192841 411.623230,369.053894 
	C412.241760,364.830078 410.815155,361.115082 407.169525,358.634064 
	C402.066650,355.161407 396.512299,355.107727 391.006866,357.355560 
	C386.617859,359.147552 384.279877,362.736176 384.305206,367.516388 
	C384.331635,372.511932 386.793152,376.319885 391.517487,377.759674 
	C394.744843,378.743256 398.353729,378.474762 402.576843,378.492889 
M401.791351,324.833832 
	C408.922211,322.084137 411.698212,317.705994 410.086761,311.750732 
	C408.610748,306.295959 401.825653,302.921478 395.024750,304.259827 
	C388.777252,305.489288 385.267975,309.914795 385.832916,315.843567 
	C386.220215,319.908020 388.458008,322.791656 392.190735,323.943665 
	C394.954041,324.796478 398.024139,324.655396 401.791351,324.833832 
z"/>
<path fill="#020202" opacity="1.000000" stroke="none" 
	d="
M409.554443,177.933899 
	C411.620056,176.262207 413.283142,174.662216 414.946228,173.062225 
	C413.149536,171.344360 411.600647,168.588562 409.512939,168.090256 
	C400.961487,166.049149 392.149933,165.084335 383.618591,162.976501 
	C375.765808,161.036316 367.766815,158.950317 360.496826,155.520035 
	C332.863647,142.481552 332.776642,104.914719 355.673309,88.532738 
	C371.935638,76.897476 390.278656,74.769188 409.467651,76.537048 
	C425.986359,78.058868 440.315399,84.371132 451.676025,96.714828 
	C456.383514,101.829727 459.811981,107.594879 460.273682,114.810722 
	C460.525787,118.750893 459.091431,120.860306 454.993469,120.856094 
	C442.498474,120.843254 429.997375,121.055656 417.513092,120.688683 
	C414.600189,120.603058 411.446503,119.019020 408.926361,117.339844 
	C404.117859,114.135941 399.098572,113.191597 393.759857,114.948112 
	C392.177185,115.468842 390.059052,117.428352 390.016876,118.785423 
	C389.964752,120.464050 391.484772,123.283661 392.909485,123.724899 
	C398.741913,125.531265 404.801910,126.597191 410.768433,127.977768 
	C420.780151,130.294357 430.993988,131.992935 440.741699,135.134171 
	C454.559601,139.587051 462.907654,149.400436 464.845123,164.073502 
	C466.871460,179.419434 462.545929,192.338272 450.019623,202.067169 
	C437.871613,211.502304 423.779785,215.448410 408.765320,216.522675 
	C391.299347,217.772339 374.104492,216.686661 358.273285,208.151321 
	C347.310486,202.240753 338.815979,194.007614 336.454651,181.185364 
	C335.058960,173.606628 335.171112,170.595016 344.537292,170.889526 
	C354.856384,171.214005 365.197388,170.808884 375.520172,171.068100 
	C378.386230,171.140060 381.787720,171.684860 383.968750,173.316086 
	C391.717682,179.111618 400.174316,179.604614 409.554443,177.933899 
z"/>
<path fill="#020202" opacity="1.000000" stroke="none" 
	d="
M112.837784,370.845398 
	C117.201508,364.994751 117.186958,358.221191 113.100548,353.688538 
	C109.373871,349.554901 102.988556,349.145020 96.934151,351.857819 
	C93.445786,353.420898 89.490616,354.560394 85.699242,354.708984 
	C75.716789,355.100311 65.709007,354.857758 55.711346,354.843658 
	C49.388023,354.834747 48.184727,353.658752 48.839737,347.543427 
	C51.233654,325.193268 53.674896,302.847931 56.198490,280.512085 
	C56.837158,274.859344 59.024445,272.978455 64.750092,272.968567 
	C93.243935,272.919281 121.737968,272.967743 150.231781,272.909119 
	C154.898132,272.899536 156.911102,275.184570 156.910278,279.628021 
	C156.908783,287.626038 156.930481,295.624298 156.875031,303.621979 
	C156.834793,309.426270 155.226639,311.034912 149.464508,311.043732 
	C132.801422,311.069183 116.138268,311.052856 99.475136,311.052917 
	C97.849129,311.052948 96.223114,311.052917 94.378181,311.052917 
	C93.855652,315.588531 93.385025,319.673676 93.000282,323.013275 
	C101.160248,321.466797 109.245766,319.156494 117.459808,318.529297 
	C138.763794,316.902466 159.820938,332.228943 165.272720,352.554108 
	C170.416779,371.731964 162.608734,390.940521 145.121628,402.127533 
	C122.610825,416.528442 80.664291,415.785217 58.946651,400.467346 
	C49.126137,393.540741 42.714195,384.392883 41.400398,372.104492 
	C40.735271,365.883270 42.114647,364.129974 48.240959,364.115234 
	C59.571762,364.087982 70.903770,364.191193 82.232971,364.052307 
	C86.865501,363.995514 90.421227,365.339569 93.544022,369.028625 
	C98.975044,375.444489 105.606552,375.936157 112.837784,370.845398 
z"/>
<path fill="#010101" opacity="1.000000" stroke="none" 
	d="
M180.950439,204.909027 
	C194.934998,164.875687 208.892929,125.246765 222.622849,85.539001 
	C224.501602,80.105515 227.613922,77.818550 233.248001,77.887627 
	C246.578094,78.051041 259.912659,78.043465 273.243073,77.893456 
	C278.686462,77.832207 281.762085,80.111099 283.557678,85.287750 
	C297.597504,125.764282 311.809021,166.181244 325.931641,206.629105 
	C328.151825,212.987762 326.736694,214.977112 320.161438,214.993561 
	C309.495850,215.020264 298.826691,214.840897 288.165894,215.068420 
	C282.911194,215.180573 279.829895,213.174225 278.054871,208.178619 
	C274.104034,197.059372 273.968994,197.107346 262.133728,197.107346 
	C252.305328,197.107346 242.476913,197.107346 232.240845,197.107346 
	C230.902847,200.600555 229.257645,204.039505 228.275101,207.658371 
	C226.738297,213.318649 223.192261,215.215652 217.567017,215.073288 
	C207.574341,214.820374 197.570663,215.003326 187.571594,215.000137 
	C178.888367,214.997360 177.866684,213.518356 180.950439,204.909027 
M252.234543,124.921051 
	C248.886002,136.153671 245.537476,147.386276 242.127701,158.824341 
	C249.591431,158.824341 256.684174,158.824341 264.103699,158.824341 
	C260.623627,147.328125 257.228455,136.090393 253.784561,124.867607 
	C253.702118,124.598961 253.075516,124.497284 252.234543,124.921051 
z"/>
<path fill="#020202" opacity="1.000000" stroke="none" 
	d="
M307.444153,344.351196 
	C295.058746,361.318481 283.069702,378.119965 270.650208,394.597015 
	C256.711945,413.089081 262.908264,409.673645 240.235687,409.986938 
	C232.571503,410.092834 224.897995,410.177124 217.243408,409.885803 
	C215.212814,409.808533 212.461548,408.800659 211.488190,407.288605 
	C210.750259,406.142334 211.808624,403.154297 212.927612,401.608185 
	C220.725037,390.834076 228.746933,380.222473 237.001038,369.150818 
	C233.239975,368.374390 229.824356,367.920471 226.560699,366.953674 
	C208.944016,361.735077 194.678802,352.420105 189.043488,333.831177 
	C182.734970,313.021606 192.849167,289.471069 213.841248,279.340729 
	C239.631805,266.894775 266.252014,267.140076 291.590424,280.735352 
	C313.172424,292.315125 320.113800,315.177521 310.543579,337.696106 
	C309.634583,339.834991 308.617432,341.927917 307.444153,344.351196 
M239.588852,314.257599 
	C238.940964,315.768890 238.075256,317.226227 237.685257,318.801361 
	C236.418213,323.918793 237.520340,328.567413 241.806122,331.763824 
	C246.762802,335.460632 252.383972,335.524750 257.854309,332.924377 
	C262.574738,330.680450 264.317963,326.556122 264.190552,321.429352 
	C264.061066,316.219299 261.724335,312.343353 257.011322,310.421967 
	C250.819336,307.897644 244.942886,308.594910 239.588852,314.257599 
z"/>
<path fill="#F4F4F4" opacity="1.000000" stroke="none" 
	d="
M100.981033,135.079132 
	C98.023628,135.079117 95.543503,135.079117 92.711975,135.079117 
	C92.711975,128.162506 92.711975,121.479980 92.711975,114.367348 
	C97.795265,114.367348 102.741592,114.054291 107.629959,114.452583 
	C112.851715,114.878036 116.146736,119.749168 115.804268,125.633331 
	C115.459221,131.561890 112.200165,134.854980 106.436562,135.053589 
	C104.778816,135.110718 103.117821,135.073242 100.981033,135.079132 
z"/>
<path fill="#F8F8F8" opacity="1.000000" stroke="none" 
	d="
M402.184448,378.629486 
	C398.353729,378.474762 394.744843,378.743256 391.517487,377.759674 
	C386.793152,376.319885 384.331635,372.511932 384.305206,367.516388 
	C384.279877,362.736176 386.617859,359.147552 391.006866,357.355560 
	C396.512299,355.107727 402.066650,355.161407 407.169525,358.634064 
	C410.815155,361.115082 412.241760,364.830078 411.623230,369.053894 
	C410.870697,374.192841 407.532593,377.203796 402.184448,378.629486 
z"/>
<path fill="#F8F8F8" opacity="1.000000" stroke="none" 
	d="
M401.374451,324.895447 
	C398.024139,324.655396 394.954041,324.796478 392.190735,323.943665 
	C388.458008,322.791656 386.220215,319.908020 385.832916,315.843567 
	C385.267975,309.914795 388.777252,305.489288 395.024750,304.259827 
	C401.825653,302.921478 408.610748,306.295959 410.086761,311.750732 
	C411.698212,317.705994 408.922211,322.084137 401.374451,324.895447 
z"/>
<path fill="#F8F8F8" opacity="1.000000" stroke="none" 
	d="
M252.468628,124.619392 
	C253.075516,124.497284 253.702118,124.598961 253.784561,124.867607 
	C257.228455,136.090393 260.623627,147.328125 264.103699,158.824341 
	C256.684174,158.824341 249.591431,158.824341 242.127701,158.824341 
	C245.537476,147.386276 248.886002,136.153671 252.468628,124.619392 
z"/>
<path fill="#F8F8F8" opacity="1.000000" stroke="none" 
	d="
M239.818604,313.955811 
	C244.942886,308.594910 250.819336,307.897644 257.011322,310.421967 
	C261.724335,312.343353 264.061066,316.219299 264.190552,321.429352 
	C264.317963,326.556122 262.574738,330.680450 257.854309,332.924377 
	C252.383972,335.524750 246.762802,335.460632 241.806122,331.763824 
	C237.520340,328.567413 236.418213,323.918793 237.685257,318.801361 
	C238.075256,317.226227 238.940964,315.768890 239.818604,313.955811 
z"/>
</svg>